<svg version="1.1" id="Layer_1" xmlns="http://www.w3.org/2000/svg" xmlns:xlink="http://www.w3.org/1999/xlink" x="0px" y="0px"
	 width="100%" viewBox="0 0 231 256" enable-background="new 0 0 231 256" xml:space="preserve">
<path fill="#000000" opacity="1.000000" stroke="none" 
	d="
M124.000000,257.000000 
	C82.666672,257.000000 41.833340,257.000000 1.000005,257.000000 
	C1.000004,171.666672 1.000004,86.333351 1.000002,1.000017 
	C77.999992,1.000011 154.999985,1.000011 231.999969,1.000006 
	C231.999985,86.333313 231.999985,171.666626 232.000000,256.999969 
	C196.166672,257.000000 160.333328,257.000000 124.000000,257.000000 
M46.011440,93.070412 
	C46.011440,93.070412 46.055218,93.207840 45.720261,93.348923 
	C45.509064,93.520103 45.429886,93.739082 45.166573,94.486366 
	C45.118233,94.671906 45.069889,94.857437 44.605465,95.219452 
	C44.314632,95.420044 44.225380,95.687836 44.117485,96.483322 
	C44.077785,96.648766 44.038082,96.814217 43.551880,97.170898 
	C43.234356,97.386002 43.141766,97.673561 43.091518,98.479912 
	C43.091518,98.479912 42.991158,98.951584 42.549198,99.160736 
	C42.230999,99.379005 42.139408,99.668892 42.092663,100.480766 
	C42.092663,100.480766 41.988808,100.955200 41.540817,101.152962 
	C41.216152,101.368462 41.125423,101.657425 41.094818,102.472641 
	C41.094818,102.472641 40.997917,102.947868 40.518280,103.178238 
	C40.437153,103.501099 40.356026,103.823959 40.109852,104.566521 
	C40.109852,104.566521 40.046730,105.013069 39.501713,105.395134 
	C39.078815,106.627724 38.655922,107.860321 38.094490,109.528915 
	C38.094490,109.528915 38.031937,109.982094 37.468121,110.401375 
	C37.052296,111.962387 36.636471,113.523399 36.080448,115.566643 
	C36.077518,115.734016 36.074585,115.901390 35.561794,116.567741 
	C35.432270,117.716187 35.302746,118.864639 35.045692,120.486458 
	C35.045692,120.486458 35.003845,120.974930 34.636864,121.219810 
	C34.379292,121.440506 34.310951,121.709290 34.174160,122.715782 
	C34.139156,123.449394 34.104153,124.183014 33.505634,125.533333 
	C33.386242,128.347229 33.266850,131.161133 33.022293,134.796295 
	C31.679024,147.173553 33.008266,159.236694 37.190063,171.514954 
	C37.479065,171.980301 37.768066,172.445633 38.018070,172.960464 
	C38.018070,172.960464 38.079430,172.974762 38.037262,173.669815 
	C38.708782,175.095520 39.380302,176.521240 40.109337,178.449387 
	C40.158699,178.610565 40.208061,178.771759 40.186073,179.452774 
	C40.452297,179.662262 40.718517,179.871765 41.079418,180.525604 
	C41.079418,180.525604 41.245319,180.948563 41.209179,181.457230 
	C41.469040,181.662125 41.728897,181.867020 42.085838,182.520645 
	C42.085838,182.520645 42.259785,182.945526 42.229244,183.445969 
	C42.483551,183.648621 42.737854,183.851288 43.090115,184.508286 
	C43.090115,184.508286 43.256485,184.942261 43.215004,185.450287 
	C43.475246,185.653168 43.735485,185.856049 44.092506,186.481964 
	C44.092506,186.481964 44.284897,186.870956 44.276638,187.372955 
	C44.525860,187.581039 44.775085,187.789124 45.157253,188.523102 
	C45.249203,188.678802 45.341148,188.834488 45.440060,189.393265 
	C45.564922,189.657333 45.770721,189.817261 46.033131,189.937393 
	C46.033131,189.937393 46.099243,189.956436 46.160126,190.472641 
	C46.433693,190.671509 46.707264,190.870361 47.098846,191.524902 
	C47.098846,191.524902 47.294834,191.952881 47.271584,192.429642 
	C47.423885,192.740402 47.670738,192.923965 48.220905,193.554916 
	C48.607834,194.026215 48.994762,194.497513 49.394436,195.389908 
	C49.525585,195.663300 49.739510,195.831177 50.015896,195.966309 
	C50.015896,195.966309 50.088745,195.986404 50.164112,196.489578 
	C50.440723,196.669022 50.717331,196.848465 51.229198,197.571793 
	C51.593716,198.035309 51.958233,198.498825 52.313606,199.414810 
	C52.461246,199.712860 52.700733,199.876282 53.211376,200.389465 
	C53.483864,200.589188 53.756351,200.788910 54.162590,201.480728 
	C54.442196,201.657471 54.721802,201.834229 55.288483,202.611877 
	C58.201141,205.404785 61.113800,208.197708 64.181458,211.457169 
	C64.374077,211.761780 64.650574,211.913910 65.009842,211.978287 
	C65.009842,211.978287 65.073036,211.964249 65.222267,212.425629 
	C65.433922,212.734970 65.720352,212.839508 66.622261,213.074081 
	C67.444145,213.723343 68.266037,214.372604 69.199150,215.423080 
	C69.350883,215.710770 69.585205,215.818146 70.410141,216.230759 
	C75.582832,219.051437 80.755524,221.872116 86.445564,224.906052 
	C86.628784,224.941010 86.812012,224.975983 87.179855,225.420166 
	C87.179855,225.420166 87.519753,225.713760 87.519753,225.713760 
	C87.519753,225.713760 87.968361,225.691101 88.524025,225.907318 
	C88.720192,225.939194 88.916359,225.971085 89.254417,226.355240 
	C89.254417,226.355240 89.543060,226.601456 89.543060,226.601456 
	C89.543060,226.601456 89.922287,226.587341 90.598305,226.850891 
	C91.079414,226.900955 91.560532,226.951019 92.324593,227.499100 
	C92.871223,227.581451 93.417847,227.663803 94.488510,227.925049 
	C94.670868,227.953583 94.853226,227.982117 95.204338,228.401932 
	C95.204338,228.401932 95.528000,228.679398 95.528000,228.679398 
	C95.528000,228.679398 95.953438,228.650970 96.654587,228.863846 
	C97.141426,228.903885 97.628258,228.943909 98.581215,229.573135 
	C103.367302,230.287643 108.153389,231.002151 113.773636,231.879852 
	C115.189072,231.893539 116.604500,231.907242 118.696548,232.295868 
	C122.141121,232.127960 125.585701,231.960037 129.866119,231.919891 
	C132.236206,231.600861 134.606277,231.281830 137.751465,230.966614 
	C138.517487,230.878632 139.283508,230.790649 140.444107,230.765457 
	C140.444107,230.765457 140.792664,230.570175 141.392136,230.503555 
	C141.942535,230.257904 142.492935,230.012268 143.700974,229.879410 
	C144.465881,229.591629 145.230774,229.303833 146.691010,228.945557 
	C147.145370,228.856186 147.599716,228.766830 148.481842,228.692169 
	C148.745071,228.540329 148.910538,228.316299 149.518768,227.941483 
	C149.690704,227.881668 149.862656,227.821838 150.611160,227.854889 
	C151.070068,227.574707 151.528992,227.294525 152.022079,227.024796 
	C152.022079,227.024796 152.022629,226.989075 152.661499,226.946167 
	C153.401199,226.624466 154.140900,226.302750 155.501846,225.882172 
	C155.696091,225.803192 155.890335,225.724213 156.480377,225.661179 
	C156.728241,225.520676 156.873734,225.309601 157.000916,225.038712 
	C157.000916,225.038712 157.011932,224.954666 157.736328,224.900177 
	C163.486252,221.480743 169.236191,218.061310 175.608368,214.445190 
	C177.129211,213.116577 178.650055,211.787979 180.402328,210.484116 
	C180.402328,210.484116 180.554886,210.090927 180.831467,209.993988 
	C180.831467,209.993988 180.957581,209.729416 181.515900,209.560043 
	C182.279327,208.699738 183.042740,207.839417 183.972229,206.991104 
	C183.972229,206.991104 183.987106,206.825287 184.589706,206.612366 
	C185.737595,205.093796 186.885483,203.575241 188.509369,201.871399 
	C188.683746,201.588943 188.858139,201.306488 189.606430,200.729691 
	C190.119537,200.048065 190.632645,199.366440 191.427490,198.647720 
	C191.619736,198.526413 191.676529,198.358795 191.878998,197.622452 
	C191.926270,197.430435 191.973557,197.238419 192.621292,196.730362 
	C193.499512,195.535980 194.455154,194.390427 195.243942,193.139664 
	C203.189011,180.541443 207.829132,166.953445 209.279663,151.994064 
	C209.809113,146.533813 208.581604,145.897415 203.951569,145.953598 
	C189.020844,146.134720 174.086105,145.966232 159.153427,146.035950 
	C157.477203,146.043777 155.804092,146.712234 154.029465,147.095001 
	C154.029465,147.095001 154.054367,147.194107 153.680450,147.343109 
	C153.442154,147.506699 153.314560,147.732758 153.072403,148.094513 
	C153.072403,148.094513 152.960938,148.303528 152.589981,148.372452 
	C152.350449,148.539276 152.268036,148.763947 151.949356,149.614059 
	C146.617142,155.374847 141.284943,161.135620 135.352890,167.008972 
	C135.052261,167.543304 134.751633,168.077637 134.451004,168.611954 
	C135.300583,168.711624 136.150162,168.811279 137.935547,168.967072 
	C145.621933,168.909409 153.308304,168.851761 161.893112,168.937653 
	C164.921463,168.891357 167.949799,168.845062 171.860214,168.946625 
	C174.238571,168.896362 176.616943,168.846085 179.711243,168.968826 
	C179.851807,169.955872 180.416824,171.142563 180.062134,171.896667 
	C178.154007,175.953461 176.017273,179.902725 173.373123,184.164459 
	C172.238358,185.449463 171.103592,186.734467 169.509689,188.165863 
	C169.212799,188.354584 169.060120,188.624802 168.974777,188.982239 
	C168.974777,188.982239 168.980331,189.059143 168.542282,189.209549 
	C168.261185,189.391571 168.109558,189.649673 167.986771,189.983185 
	C167.986771,189.983185 167.985962,190.083832 167.538956,190.211197 
	C167.255127,190.389740 167.097656,190.645950 166.443069,191.246796 
	C162.945450,194.156708 159.447815,197.066620 155.228729,200.075027 
	C152.092072,201.531097 148.955414,202.987167 145.496658,204.424835 
	C145.294525,204.542389 145.181290,204.717499 144.536255,205.071426 
	C144.340332,205.149231 144.144394,205.227020 143.506622,205.298080 
	C143.241547,205.457703 143.062164,205.684967 142.149094,206.031769 
	C137.075745,207.080109 132.002380,208.128464 126.054031,209.089493 
	C123.678879,209.107834 121.303734,209.126175 118.325111,208.616104 
	C114.877434,208.172638 111.429749,207.729156 107.326675,207.112350 
	C106.875015,207.106628 106.423347,207.100922 105.550575,206.595840 
	C104.713051,206.485794 103.875534,206.375748 102.493423,206.081177 
	C102.303749,206.053604 102.114082,206.026016 101.556824,205.481781 
	C100.358337,205.090591 99.159843,204.699387 97.418175,204.105270 
	C97.226662,204.079132 97.035156,204.053009 96.715736,203.686783 
	C96.557549,203.448517 96.343971,203.378021 95.342735,203.131470 
	C95.079720,203.071945 94.816711,203.012436 94.594589,202.771942 
	C94.594589,202.771942 94.303787,202.805511 93.446220,202.206085 
	C93.109261,202.116119 92.772293,202.026154 92.502739,201.803680 
	C92.502739,201.803680 92.308151,201.869400 91.498512,201.260605 
	C91.178505,201.152863 90.858490,201.045120 90.582001,200.758926 
	C90.582001,200.758926 90.289330,200.782486 89.705750,200.260895 
	C89.459480,200.174728 89.213219,200.088577 88.785149,199.575668 
	C88.575035,199.278381 88.298904,199.192017 87.474838,199.095581 
	C87.303467,199.052383 87.132103,199.009201 86.819710,198.538574 
	C86.650063,198.251862 86.398727,198.113052 86.056000,197.939819 
	C86.056000,197.939819 85.873405,197.938141 85.789665,197.542862 
	C85.629616,197.251923 85.397362,197.173004 84.556740,197.087448 
	C84.368454,197.045013 84.180176,197.002594 83.831009,196.519623 
	C83.648804,196.231049 83.387169,196.080185 83.045044,195.957870 
	C83.045044,195.957870 82.935883,195.958511 82.818733,195.521698 
	C82.646057,195.227264 82.390083,195.098953 81.995972,194.938217 
	C81.995972,194.938217 81.790009,194.939331 81.714760,194.592651 
	C81.583046,194.354202 81.383057,194.258957 80.720062,193.694077 
	C78.898582,192.042923 77.077110,190.391785 75.346519,188.689667 
	C75.346519,188.689667 75.194283,188.658112 74.793449,188.114838 
	C74.613625,187.979523 74.433800,187.844208 74.335617,187.661575 
	C74.335617,187.661575 74.193703,187.636932 73.895409,186.943436 
	C73.530296,186.616150 73.165184,186.288849 72.708549,185.558929 
	C72.549995,185.305298 72.321526,185.167450 72.044052,184.995758 
	C72.044052,184.995758 71.894463,184.974579 71.810448,184.510468 
	C71.633018,184.219650 71.374809,184.057114 70.760963,183.380066 
	C68.851730,180.380325 66.942497,177.380600 65.047615,174.118439 
	C65.047615,174.118439 64.836594,173.961792 64.807533,173.363129 
	C64.219383,172.371399 63.631237,171.379684 62.904152,169.650162 
	C62.815498,169.416138 62.726845,169.182129 62.688026,168.533386 
	C62.545528,168.263885 62.322563,168.114365 61.916851,167.539902 
	C61.841724,167.371063 61.766598,167.202209 61.655304,166.279007 
	C60.093430,160.048950 58.531551,153.818893 56.816097,146.976242 
	C71.051254,146.976242 83.938911,147.013474 96.825806,146.931015 
	C98.512718,146.920212 100.195702,146.295441 101.992149,145.957764 
	C101.992149,145.957764 101.994614,145.846115 102.422676,145.750854 
	C102.708374,145.583008 102.832062,145.334518 102.986389,144.953445 
	C102.986389,144.953445 102.991554,144.753983 103.372200,144.657089 
	C103.620758,144.501419 103.732521,144.277405 103.905525,143.937820 
	C103.905525,143.937820 103.913712,143.734390 104.378906,143.552322 
	C104.765625,143.033691 105.152344,142.515060 105.921288,141.721039 
	C105.921288,141.721039 106.105637,141.287491 106.269615,141.378845 
	C106.269615,141.378845 106.305023,141.071915 106.865150,140.601807 
	C109.910118,137.401260 112.955086,134.200699 116.481880,130.845367 
	C116.647278,130.563644 116.812683,130.281906 117.009415,130.008682 
	C117.009415,130.008682 116.999039,129.977921 117.471619,129.826172 
	C117.774719,129.632919 117.937988,129.356934 118.010414,129.011490 
	C118.010414,129.011490 117.996910,128.962570 118.471352,128.822098 
	C118.775848,128.630096 118.936417,128.354309 119.007347,128.007034 
	C119.007347,128.007034 118.992828,127.953285 119.464081,127.809883 
	C119.762085,127.618729 119.930244,127.347168 120.444023,126.834877 
	C120.618385,126.561752 120.792755,126.288635 121.633934,125.606850 
	C122.385002,121.703804 119.282341,123.182411 117.827896,123.174171 
	C100.060081,123.073448 82.291420,123.123360 64.522972,123.133942 
	C62.761833,123.134995 61.000694,123.134087 57.664326,123.134087 
	C61.494831,115.687447 64.766212,109.327751 68.484856,102.838013 
	C68.789108,102.658737 68.917870,102.394066 69.059425,101.994247 
	C69.059425,101.994247 69.040871,101.800400 69.385712,101.725815 
	C69.637039,101.586769 69.709023,101.383904 69.952812,100.542709 
	C70.643707,99.675194 71.334595,98.807678 72.457748,97.802856 
	C72.744278,97.627914 72.881241,97.372688 73.371445,96.775246 
	C73.572510,96.463066 73.773582,96.150894 74.392799,95.723991 
	C74.663124,95.560371 74.806015,95.320770 75.019272,94.999931 
	C75.019272,94.999931 75.059135,94.806122 75.451996,94.737022 
	C75.711319,94.586449 75.827888,94.361748 76.016975,94.002533 
	C76.016975,94.002533 76.053520,93.781967 76.430542,93.698730 
	C76.675217,93.549835 76.791595,93.332245 77.324699,92.784958 
	C77.565910,92.468613 77.807121,92.152275 78.466515,91.751801 
	C78.733322,91.588531 78.869446,91.350471 79.388229,90.827202 
	C79.598129,90.531624 79.808029,90.236046 80.482018,89.815224 
	C80.772270,89.630783 80.941010,89.368225 81.721001,88.744148 
	C81.913818,88.566940 82.106644,88.389725 82.351746,88.317924 
	C82.351746,88.317924 82.401184,88.147240 82.828072,87.976929 
	C82.828072,87.976929 83.153740,87.652634 83.501534,87.645538 
	C83.719833,87.505669 83.819099,87.306366 83.997032,87.042984 
	C83.997032,87.042984 84.038872,86.849701 84.483734,86.770531 
	C84.759857,86.597595 84.914886,86.349075 85.605995,85.761124 
	C85.767105,85.588600 85.928223,85.416084 86.695412,85.124748 
	C91.125778,82.745033 95.556145,80.365326 100.527695,77.919876 
	C100.699837,77.861671 100.871986,77.803459 101.614563,77.849304 
	C102.069931,77.576843 102.525299,77.304382 103.658173,76.966797 
	C104.101326,76.882637 104.544487,76.798470 105.778793,76.661255 
	C109.511681,76.067902 113.266319,74.868439 116.973137,75.001457 
	C125.993385,75.325150 134.991425,76.267250 144.005859,77.022125 
	C144.005859,77.022125 144.064774,77.003059 144.337112,77.499084 
	C144.875717,77.575226 145.414322,77.651375 146.534439,77.907852 
	C146.733780,77.945900 146.933121,77.983955 147.256378,78.354324 
	C147.256378,78.354324 147.525421,78.584061 147.525421,78.584061 
	C147.525421,78.584061 147.878128,78.555305 148.553329,78.830666 
	C149.035202,78.894577 149.517075,78.958488 150.166245,79.448547 
	C150.166245,79.448547 150.512909,79.748238 150.512909,79.748238 
	C150.512909,79.748238 150.968689,79.699951 151.485062,79.886505 
	C151.662857,79.929932 151.840652,79.973351 152.159180,80.453728 
	C152.159180,80.453728 152.501434,80.759659 152.501434,80.759659 
	C152.501434,80.759659 152.955292,80.690331 153.788071,80.937149 
	C154.071152,80.997841 154.354248,81.058540 154.825226,81.508530 
	C155.237595,81.588776 155.649963,81.669014 156.690109,82.074440 
	C158.948868,83.389977 161.120026,84.912605 163.507980,85.922707 
	C164.512756,86.347725 166.434143,86.155327 167.153137,85.446556 
	C170.883942,81.768776 174.361053,77.833641 178.012146,73.989716 
	C178.012146,73.989716 178.015060,73.904167 178.461380,73.790764 
	C178.750732,73.614311 178.894928,73.356613 179.015564,73.016594 
	C179.015564,73.016594 179.014648,72.895020 179.457947,72.785728 
	C179.745834,72.611404 179.888443,72.355957 180.018890,72.018318 
	C180.018890,72.018318 180.018005,71.885223 180.455765,71.780273 
	C180.740723,71.608902 180.880524,71.356956 181.022736,71.023453 
	C181.022736,71.023453 181.021973,70.875900 181.455490,70.775093 
	C181.737686,70.605743 181.875412,70.356514 182.022614,70.026634 
	C182.022614,70.026634 182.022064,69.872696 182.455688,69.771729 
	C182.739441,69.599968 182.871460,69.348503 183.013824,69.005455 
	C183.013824,69.005455 183.002060,68.843376 183.420868,68.730705 
	C183.691513,68.562874 183.827179,68.319695 183.994843,68.006195 
	C183.994843,68.006195 183.999924,67.839188 184.428345,67.748741 
	C184.709152,67.584343 184.843750,67.339523 185.012207,67.006248 
	C185.012207,67.006248 185.016739,66.826042 185.433777,66.734428 
	C185.705261,66.570618 185.834274,66.330276 185.996094,66.010773 
	C185.996094,66.010773 185.993530,65.835472 186.423569,65.735519 
	C186.702499,65.565956 186.838730,65.317955 187.366394,64.739235 
	C187.584335,64.417862 187.802261,64.096489 188.404907,63.699913 
	C188.662170,63.549900 188.770020,63.327400 188.947205,62.952801 
	C188.947205,62.952801 188.972488,62.721382 189.339096,62.629398 
	C189.578949,62.480598 189.686874,62.265526 189.969131,61.808823 
	C189.969131,61.808823 190.089020,61.476902 190.302475,61.511673 
	C190.302475,61.511673 190.394852,61.144970 190.885651,60.883484 
	C190.994690,60.733574 191.103729,60.583664 191.382401,60.531044 
	C191.382401,60.531044 191.414597,60.225426 191.806030,59.969662 
	C191.806030,59.969662 192.009323,59.548588 192.447632,59.338627 
	C192.656738,58.901451 192.865829,58.464275 193.688461,57.806087 
	C195.098038,56.459114 196.507614,55.112141 198.555984,53.693810 
	C198.329773,52.879406 198.103546,52.064999 197.074799,51.124058 
	C195.723038,51.155495 194.371292,51.186935 192.093521,51.041595 
	C182.401184,51.093040 172.708832,51.144485 162.146744,51.076649 
	C160.103104,51.124634 158.059448,51.172623 155.094666,51.070068 
	C150.739258,51.115189 146.383865,51.160313 141.098434,51.053497 
	C133.104233,51.054932 125.100876,50.828220 117.119453,51.148285 
	C112.734901,51.324116 108.387283,52.421024 103.345970,53.063271 
	C102.901161,53.126823 102.456360,53.190376 101.441063,53.182457 
	C100.965645,53.468616 100.490219,53.754776 99.312546,54.060440 
	C98.855362,54.152306 98.398178,54.244171 97.371643,54.203979 
	C96.915886,54.467022 96.460121,54.730068 95.311943,55.064865 
	C94.863670,55.168003 94.415405,55.271141 93.557449,55.377331 
	C93.300941,55.513481 93.134010,55.721508 92.241074,56.084991 
	C91.728928,56.259975 91.216774,56.434956 90.478325,56.512478 
	C90.478325,56.512478 90.270126,56.922565 89.625542,57.058346 
	C89.415550,57.122509 89.205559,57.186672 88.526039,57.191994 
	C88.178642,57.360172 88.068436,57.626503 87.851807,58.573364 
	C86.888779,59.009579 85.925743,59.445793 84.225296,60.004730 
	C78.496552,63.335323 72.767807,66.665916 66.415771,70.238853 
	C65.578545,70.971756 64.741318,71.704659 63.586670,72.430199 
	C63.369930,72.544418 63.283108,72.722107 63.076683,73.003571 
	C63.076683,73.003571 62.992252,73.241798 62.578415,73.297653 
	C62.313000,73.447884 62.169712,73.675156 61.989223,73.954018 
	C61.989223,73.954018 61.963486,74.113304 61.506344,74.185257 
	C61.214413,74.357635 61.062645,74.613266 60.539055,75.144485 
	C60.347218,75.444237 60.155384,75.743988 59.505093,76.178711 
	C59.215286,76.366501 59.057594,76.632607 58.437759,77.215775 
	C57.621399,78.183167 56.805042,79.150551 55.575378,80.232018 
	C55.294704,80.395424 55.175106,80.638199 54.989906,81.052208 
	C54.989906,81.052208 54.963928,81.295410 54.621338,81.369247 
	C54.396099,81.507622 54.299847,81.708046 54.104443,82.039124 
	C54.104443,82.039124 54.077511,82.275810 53.593616,82.512711 
	C53.381943,83.000183 53.170269,83.487648 52.998619,84.002121 
	C52.998619,84.002121 52.972446,83.961884 52.486172,84.129044 
	C52.326153,84.418465 52.166138,84.707878 51.978157,84.993713 
	C51.978157,84.993713 51.983345,85.021545 51.529907,85.168831 
	C51.228096,85.352272 51.084061,85.620453 50.972683,85.984497 
	C50.972683,85.984497 50.983608,86.109627 50.574673,86.226364 
	C50.284714,86.402550 50.196712,86.650520 50.083202,87.449074 
	C50.044312,87.621429 50.005417,87.793793 49.500313,88.140350 
	C49.196365,88.336266 49.037037,88.614899 48.416668,89.310722 
	C48.216106,89.722458 48.015545,90.134193 47.670467,90.446068 
	C47.670467,90.446068 47.711426,90.691841 47.230175,91.244308 
	C47.149876,91.474953 47.069576,91.705605 46.528999,92.142052 
	C46.401276,92.434044 46.273548,92.726028 46.011440,93.070412 
z"/>
<path fill="#9B6AAD" opacity="1.000000" stroke="none" 
	d="
M49.966522,87.966148 
	C50.005417,87.793793 50.044312,87.621429 50.338467,87.090248 
	C50.768963,86.552536 50.898922,86.345276 50.983608,86.109627 
	C50.983608,86.109627 50.972683,85.984497 51.209427,85.847382 
	C51.665821,85.512360 51.844879,85.282791 51.983345,85.021545 
	C51.983345,85.021545 51.978157,84.993713 52.242172,85.000275 
	C52.673027,85.005295 52.839870,85.003738 53.245827,85.267059 
	C54.286671,87.141174 55.593555,88.685654 55.809498,90.370010 
	C57.407692,102.835762 59.136578,115.302971 60.086643,127.825691 
	C60.540115,133.802841 59.384670,139.902039 58.601833,146.035751 
	C57.555557,146.945068 56.130272,147.960876 56.288601,148.553864 
	C57.943718,154.752640 59.852753,160.883621 61.691471,167.033371 
	C61.766598,167.202209 61.841724,167.371063 62.040764,167.975555 
	C62.286652,168.621796 62.444485,168.800766 62.638187,168.948105 
	C62.726845,169.182129 62.815498,169.416138 62.954781,170.325729 
	C63.615803,171.988129 64.226196,172.974960 64.836594,173.961792 
	C64.836594,173.961792 65.047615,174.118439 65.015663,174.622742 
	C65.374130,177.051117 65.857529,178.962234 66.128090,180.903030 
	C66.384651,182.743347 66.527962,184.615143 66.521255,186.472366 
	C66.513374,188.656647 65.988342,190.872391 66.217514,193.017883 
	C66.886139,199.277390 69.758469,205.528366 65.744339,211.776245 
	C65.517799,211.828552 65.073036,211.964249 65.073036,211.964249 
	C65.073036,211.964249 65.009842,211.978287 64.894966,211.745514 
	C64.581718,211.262466 64.330505,211.088425 64.026459,210.990631 
	C61.113800,208.197708 58.201141,205.404785 55.031647,202.098572 
	C54.579784,201.319336 54.331127,201.120453 54.028839,200.988647 
	C53.756351,200.788910 53.483864,200.589188 53.061016,199.952332 
	C52.777222,199.264450 52.581253,199.080154 52.322754,198.962341 
	C51.958233,198.498825 51.593716,198.035309 51.008682,197.088165 
	C50.604996,196.341934 50.371857,196.135895 50.088745,195.986404 
	C50.088745,195.986404 50.015896,195.966309 49.976688,195.739624 
	C49.817837,195.264557 49.632568,195.083191 49.381683,194.968826 
	C48.994762,194.497513 48.607834,194.026215 48.056374,193.060074 
	C47.756824,192.298752 47.557823,192.094635 47.294834,191.952881 
	C47.294834,191.952881 47.098846,191.524902 46.941406,191.076508 
	C46.607258,190.351700 46.379017,190.127808 46.099243,189.956436 
	C46.099243,189.956436 46.033131,189.937393 45.995613,189.724167 
	C45.845501,189.274445 45.670498,189.100845 45.433090,188.990158 
	C45.341148,188.834488 45.249203,188.678802 45.153389,188.004486 
	C45.183708,187.313904 45.217888,187.141937 45.524837,186.740265 
	C46.530521,184.242310 47.896996,181.971039 47.886166,179.706345 
	C47.840393,170.131012 47.372318,160.558044 47.082005,150.983490 
	C46.686527,137.940506 46.433315,124.891380 45.841282,111.857513 
	C45.698940,108.723778 45.589111,104.962402 41.173702,103.763588 
	C41.078304,103.309929 41.038113,103.128899 40.997917,102.947868 
	C40.997917,102.947868 41.094818,102.472641 41.348747,102.103050 
	C41.808311,101.512199 41.937019,101.252777 41.988808,100.955200 
	C41.988808,100.955200 42.092663,100.480766 42.352524,100.111267 
	C42.818108,99.516457 42.944366,99.253059 42.991158,98.951584 
	C42.991158,98.951584 43.091518,98.479912 43.353806,98.118347 
	C43.824776,97.537704 43.952206,97.278664 43.998379,96.979668 
	C44.038082,96.814217 44.077785,96.648766 44.398140,96.133652 
	C44.882202,95.578217 44.996452,95.331215 45.021542,95.042976 
	C45.069889,94.857437 45.118233,94.671906 45.475273,94.157867 
	C45.963314,93.660965 46.053726,93.453789 46.055218,93.207840 
	C46.055218,93.207840 46.011440,93.070412 46.264107,92.902695 
	C46.746941,92.511749 46.904446,92.245506 46.989277,91.936256 
	C47.069576,91.705605 47.149876,91.474953 47.507095,90.959534 
	C47.784012,90.674759 47.814987,90.545929 47.814987,90.545929 
	C48.015545,90.134193 48.216106,89.722458 48.896507,88.994682 
	C49.601955,88.465073 49.798679,88.227570 49.966522,87.966148 
z"/>
<path fill="#9565AA" opacity="1.000000" stroke="none" 
	d="
M58.957993,145.945953 
	C59.384670,139.902039 60.540115,133.802841 60.086643,127.825691 
	C59.136578,115.302971 57.407692,102.835762 55.809498,90.370010 
	C55.593555,88.685654 54.286671,87.141174 53.240112,85.006821 
	C52.987671,84.308441 52.980057,84.135162 52.972446,83.961884 
	C52.972446,83.961884 52.998619,84.002121 53.161274,83.806915 
	C53.575123,83.166412 53.826317,82.721107 54.077511,82.275810 
	C54.077511,82.275810 54.104443,82.039124 54.339092,81.908234 
	C54.726597,81.635162 54.856659,81.474518 54.963928,81.295410 
	C54.963928,81.295410 54.989906,81.052208 55.248531,80.882996 
	C55.691750,80.534645 55.852261,80.336021 55.988686,80.117935 
	C56.805042,79.150551 57.621399,78.183167 58.906769,76.958275 
	C59.595779,76.503304 59.791702,76.284294 59.963551,76.043739 
	C60.155384,75.743988 60.347218,75.444237 60.962776,74.927155 
	C61.601791,74.533203 61.794121,74.334366 61.963486,74.113304 
	C61.963486,74.113304 61.989223,73.954018 62.224342,73.862503 
	C62.659626,73.617317 62.837223,73.440918 62.992252,73.241798 
	C62.992252,73.241798 63.076683,73.003571 63.310928,72.913513 
	C63.685841,72.714394 63.805477,72.585762 63.904091,72.437561 
	C64.741318,71.704659 65.578545,70.971756 67.082993,70.196320 
	C68.709221,71.360489 70.318710,72.472809 70.509972,73.790909 
	C71.187424,78.459801 71.217468,83.220078 71.823502,87.902931 
	C72.140587,90.353111 73.146835,92.714104 73.871521,95.296852 
	C73.901207,95.478333 73.974648,95.838715 73.974648,95.838715 
	C73.773582,96.150894 73.572510,96.463066 72.954369,97.030731 
	C72.328430,97.474243 72.157829,97.692223 72.025482,97.940155 
	C71.334595,98.807678 70.643707,99.675194 69.665253,100.927597 
	C69.239113,101.456978 69.126839,101.619614 69.040871,101.800400 
	C69.040871,101.800400 69.059425,101.994247 68.809631,102.156647 
	C68.361443,102.515823 68.187363,102.732162 68.037598,102.968063 
	C64.766212,109.327751 61.494831,115.687447 57.664326,123.134087 
	C61.000694,123.134087 62.761833,123.134995 64.522972,123.133942 
	C82.291420,123.123360 100.060081,123.073448 117.827896,123.174171 
	C119.282341,123.182411 122.385002,121.703804 121.094429,125.491501 
	C118.858025,124.936165 117.167992,124.152084 115.462982,124.118057 
	C109.329536,123.995659 103.191048,124.126411 96.644806,124.212448 
	C93.792320,124.517799 91.253136,124.454369 88.945305,125.154045 
	C87.698463,125.532066 85.948372,127.229340 85.966599,128.305328 
	C86.066284,134.189331 86.644081,140.065231 86.585373,145.953293 
	C77.061462,145.957092 68.009727,145.951523 58.957993,145.945953 
z"/>
<path fill="#9E6EAC" opacity="1.000000" stroke="none" 
	d="
M41.228905,104.036217 
	C45.589111,104.962402 45.698940,108.723778 45.841282,111.857513 
	C46.433315,124.891380 46.686527,137.940506 47.082005,150.983490 
	C47.372318,160.558044 47.840393,170.131012 47.886166,179.706345 
	C47.896996,181.971039 46.530521,184.242310 45.283379,186.703613 
	C44.769150,186.896652 44.284897,186.870956 44.284897,186.870956 
	C44.284897,186.870956 44.092506,186.481964 43.977028,186.051239 
	C43.718639,185.341980 43.516949,185.115906 43.256485,184.942261 
	C43.256485,184.942261 43.090115,184.508286 42.975170,184.063431 
	C42.720051,183.340729 42.519905,183.116379 42.259785,182.945526 
	C42.259785,182.945526 42.085838,182.520645 41.968819,182.076355 
	C41.706741,181.353577 41.504581,181.125732 41.245319,180.948563 
	C41.245319,180.948563 41.079418,180.525604 40.965279,180.081329 
	C40.710381,179.354156 40.512474,179.119461 40.257427,178.932938 
	C40.208061,178.771759 40.158699,178.610565 40.087021,177.842651 
	C39.402946,175.815536 38.741188,174.395142 38.079430,172.974762 
	C38.079430,172.974762 38.018070,172.960464 38.037239,172.662170 
	C37.795029,171.894226 37.533646,171.424561 37.272263,170.954895 
	C33.008266,159.236694 31.679024,147.173553 33.240932,134.052795 
	C33.662762,130.511749 33.865952,127.714188 34.069145,124.916626 
	C34.104153,124.183014 34.139156,123.449394 34.465355,122.237846 
	C34.935833,121.528755 35.018265,121.267090 35.003845,120.974930 
	C35.003845,120.974930 35.045692,120.486458 35.278793,119.953247 
	C35.698479,118.302948 35.885063,117.185852 36.071648,116.068764 
	C36.074585,115.901390 36.077518,115.734016 36.428307,115.120087 
	C37.194756,113.109726 37.613346,111.545906 38.031937,109.982094 
	C38.031937,109.982094 38.094490,109.528915 38.434605,109.119751 
	C39.198723,107.478088 39.622726,106.245575 40.046730,105.013069 
	C40.046730,105.013069 40.109852,104.566521 40.432144,104.339081 
	C40.754436,104.111633 41.228905,104.036217 41.228905,104.036217 
z"/>
<path fill="#84509F" opacity="1.000000" stroke="none" 
	d="
M104.023018,53.102634 
	C108.387283,52.421024 112.734901,51.324116 117.119453,51.148285 
	C125.100876,50.828220 133.104233,51.054932 141.557877,51.583466 
	C142.677689,60.395718 143.338043,68.678001 143.998413,76.960281 
	C134.991425,76.267250 125.993385,75.325150 116.973137,75.001457 
	C113.266319,74.868439 109.511681,76.067902 105.537331,76.394699 
	C110.627419,71.103363 108.826851,64.533218 109.195900,58.407410 
	C109.425690,54.593124 107.577904,53.085281 104.023018,53.102634 
z"/>
<path fill="#8856A3" opacity="1.000000" stroke="none" 
	d="
M148.054077,228.677475 
	C147.599716,228.766830 147.145370,228.856186 146.034836,228.995819 
	C144.600220,229.286255 143.821777,229.526443 143.043320,229.766632 
	C142.492935,230.012268 141.942535,230.257904 141.000336,230.500549 
	C140.395035,230.487381 140.208694,230.555756 140.049530,230.702667 
	C139.283508,230.790649 138.517487,230.878632 137.067657,230.843399 
	C133.932663,231.077499 131.481461,231.434830 129.030273,231.792145 
	C125.585701,231.960037 122.141121,232.127960 118.672379,231.938400 
	C122.847618,230.983643 124.887871,228.539642 125.245399,224.330856 
	C125.675461,219.268372 126.356590,214.227203 126.929031,209.176819 
	C132.002380,208.128464 137.075745,207.080109 142.734375,205.912064 
	C143.547150,205.652954 143.756760,205.490433 143.948441,205.304825 
	C144.144394,205.227020 144.340332,205.149231 144.968887,204.944397 
	C145.562088,204.716614 145.701157,204.591904 145.818756,204.443222 
	C148.955414,202.987167 152.092072,201.531097 155.893036,200.183716 
	C159.503448,203.277725 159.934006,206.351608 158.464172,210.520569 
	C156.869095,215.044724 153.927139,219.813507 157.011932,224.954666 
	C157.011932,224.954666 157.000916,225.038712 156.807831,225.117706 
	C156.418610,225.323273 156.241882,225.472778 156.084579,225.645248 
	C155.890335,225.724213 155.696091,225.803192 154.883957,225.962280 
	C153.518250,226.357956 152.770447,226.673508 152.022629,226.989075 
	C152.022629,226.989075 152.022079,227.024796 151.746704,227.071579 
	C150.992432,227.332916 150.513535,227.547470 150.034637,227.761993 
	C149.862656,227.821838 149.690704,227.881668 149.082062,228.071259 
	C148.429611,228.336700 148.232513,228.495499 148.054077,228.677475 
z"/>
<path fill="#905CA7" opacity="1.000000" stroke="none" 
	d="
M126.491531,209.133148 
	C126.356590,214.227203 125.675461,219.268372 125.245399,224.330856 
	C124.887871,228.539642 122.847618,230.983643 118.334076,231.750946 
	C116.604500,231.907242 115.189072,231.893539 113.039795,231.625244 
	C107.862930,230.484070 103.419899,229.597519 98.974884,228.318527 
	C98.979553,220.627411 98.986206,213.328751 99.359818,206.028488 
	C100.459320,206.017410 101.191864,206.007919 101.924408,205.998444 
	C102.114082,206.026016 102.303749,206.053604 102.926544,206.367493 
	C104.230339,206.800934 105.101013,206.948059 105.971687,207.095184 
	C106.423347,207.100922 106.875015,207.106628 107.866631,207.479782 
	C111.913918,208.279663 115.421249,208.712097 118.928581,209.144531 
	C121.303734,209.126175 123.678879,209.107834 126.491531,209.133148 
z"/>
<path fill="#9263AA" opacity="1.000000" stroke="none" 
	d="
M65.970886,211.723923 
	C69.758469,205.528366 66.886139,199.277390 66.217514,193.017883 
	C65.988342,190.872391 66.513374,188.656647 66.521255,186.472366 
	C66.527962,184.615143 66.384651,182.743347 66.128090,180.903030 
	C65.857529,178.962234 65.374130,177.051117 65.008484,174.753937 
	C66.942497,177.380600 68.851730,180.380325 71.027039,183.872284 
	C71.475647,184.585526 71.676102,184.788879 71.894463,184.974579 
	C71.894463,184.974579 72.044052,184.995758 72.149826,185.218185 
	C72.420654,185.631424 72.602150,185.805069 72.800072,185.961563 
	C73.165184,186.288849 73.530296,186.616150 74.039398,187.309891 
	C74.183388,187.676346 74.253983,187.708908 74.253983,187.708908 
	C74.433800,187.844208 74.613625,187.979523 74.989395,188.406799 
	C75.185349,188.698776 75.255630,188.740631 75.255630,188.740631 
	C77.077110,190.391785 78.898582,192.042923 81.014481,194.119095 
	C81.453682,194.694824 81.614052,194.826569 81.790009,194.939331 
	C81.790009,194.939331 81.995972,194.938217 82.156876,195.188049 
	C82.507385,195.630936 82.713425,195.804474 82.935883,195.958511 
	C82.935883,195.958511 83.045044,195.957870 83.188965,196.175064 
	C83.535439,196.601410 83.755104,196.790710 83.991890,196.960159 
	C84.180176,197.002594 84.368454,197.045013 84.942093,197.317413 
	C85.493675,197.699631 85.675667,197.829895 85.873405,197.938141 
	C85.873405,197.938141 86.056000,197.939819 86.195450,198.185089 
	C86.526779,198.628479 86.735390,198.807022 86.960747,198.966019 
	C87.132103,199.009201 87.303467,199.052383 87.724052,199.397614 
	C87.973267,199.699661 88.024750,200.079468 87.824036,200.377533 
	C83.662086,208.441635 84.195679,216.524902 85.928207,224.692795 
	C80.755524,221.872116 75.582832,219.051437 70.035629,215.852997 
	C69.485657,215.304398 69.294586,215.153275 69.087921,215.021866 
	C68.266037,214.372604 67.444145,213.723343 66.330948,212.652008 
	C66.016724,212.061264 65.993805,211.892593 65.970886,211.723923 
z"/>
<path fill="#915FA8" opacity="1.000000" stroke="none" 
	d="
M177.926559,73.988174 
	C174.361053,77.833641 170.883942,81.768776 167.153137,85.446556 
	C166.434143,86.155327 164.512756,86.347725 163.507980,85.922707 
	C161.120026,84.912605 158.948868,83.389977 156.369049,81.700424 
	C156.048004,81.326416 156.011002,80.905045 156.011444,80.478226 
	C156.013199,70.441147 156.014511,60.830875 156.015808,51.220608 
	C158.059448,51.172623 160.103104,51.124634 162.948853,51.291889 
	C166.838654,51.677940 169.926331,51.848747 173.010483,52.480057 
	C173.382690,58.296574 173.474686,63.696365 174.290558,68.984482 
	C174.570068,70.796242 176.662430,72.328323 177.926559,73.988174 
z"/>
<path fill="#824A9B" opacity="1.000000" stroke="none" 
	d="
M192.020859,197.046402 
	C191.973557,197.238419 191.926270,197.430435 191.637314,197.950760 
	C191.395630,198.279068 191.145752,198.684814 191.145752,198.684814 
	C190.632645,199.366440 190.119537,200.048065 189.134338,201.030090 
	C188.425720,201.549240 188.216095,201.791306 188.033371,202.056686 
	C186.885483,203.575241 185.737595,205.093796 184.216660,206.354584 
	C183.261307,203.562866 181.962753,200.956116 182.211792,198.506714 
	C183.957581,181.334473 186.022827,164.194717 188.438049,147.038132 
	C198.327057,146.980118 198.298904,146.976547 197.122635,156.251144 
	C195.398392,169.846558 193.719223,183.447708 192.020859,197.046402 
z"/>
<path fill="#7B4396" opacity="1.000000" stroke="none" 
	d="
M192.321075,196.888382 
	C193.719223,183.447708 195.398392,169.846558 197.122635,156.251144 
	C198.298904,146.976547 198.327057,146.980118 187.995483,147.029449 
	C184.733154,147.032455 182.365540,147.037689 179.553253,147.032867 
	C176.730286,147.030701 174.351990,147.038620 171.525146,147.041306 
	C168.378143,147.048828 165.679672,147.061584 162.537445,147.060501 
	C159.438965,147.055893 156.784256,147.065109 154.129532,147.074326 
	C155.804092,146.712234 157.477203,146.043777 159.153427,146.035950 
	C174.086105,145.966232 189.020844,146.134720 203.951569,145.953598 
	C208.581604,145.897415 209.809113,146.533813 209.279663,151.994064 
	C207.829132,166.953445 203.189011,180.541443 195.243942,193.139664 
	C194.455154,194.390427 193.499512,195.535980 192.321075,196.888382 
z"/>
<path fill="#84509F" opacity="1.000000" stroke="none" 
	d="
M179.997940,147.042938 
	C182.365540,147.037689 184.733154,147.032455 187.543320,147.035889 
	C186.022827,164.194717 183.957581,181.334473 182.211792,198.506714 
	C181.962753,200.956116 183.261307,203.562866 183.915359,206.461029 
	C183.987106,206.825287 183.972229,206.991104 183.580368,207.035233 
	C182.444870,207.962708 181.701233,208.846069 180.957581,209.729431 
	C180.957581,209.729416 180.831467,209.993988 180.616989,210.087204 
	C180.402512,210.180420 180.170883,210.459366 180.170898,210.459381 
	C178.650055,211.787979 177.129211,213.116577 175.230988,214.215897 
	C174.051590,212.231796 172.523239,210.456924 172.571030,208.725571 
	C172.799728,200.440277 173.455475,192.166794 173.959442,183.889099 
	C176.017273,179.902725 178.154007,175.953461 180.062134,171.896667 
	C180.416824,171.142563 179.851807,169.955872 179.374084,168.474609 
	C179.357254,161.001236 179.677597,154.022079 179.997940,147.042938 
z"/>
<path fill="#8651A0" opacity="1.000000" stroke="none" 
	d="
M173.666290,184.026779 
	C173.455475,192.166794 172.799728,200.440277 172.571030,208.725571 
	C172.523239,210.456924 174.051590,212.231796 174.919861,214.314240 
	C169.236191,218.061310 163.486252,221.480743 157.374130,224.927429 
	C153.927139,219.813507 156.869095,215.044724 158.464172,210.520569 
	C159.934006,206.351608 159.503448,203.277725 156.253754,200.134460 
	C159.447815,197.066620 162.945450,194.156708 166.919769,190.976868 
	C167.609818,190.515167 167.806320,190.307465 167.985962,190.083832 
	C167.985962,190.083832 167.986771,189.983185 168.198563,189.842468 
	C168.618454,189.503616 168.808441,189.289413 168.980331,189.059143 
	C168.980331,189.059143 168.974777,188.982239 169.178589,188.832489 
	C169.595657,188.477402 169.791138,188.256302 169.968811,188.019470 
	C171.103592,186.734467 172.238358,185.449463 173.666290,184.026779 
z"/>
<path fill="#915FA8" opacity="1.000000" stroke="none" 
	d="
M73.841835,95.115372 
	C73.146835,92.714104 72.140587,90.353111 71.823502,87.902931 
	C71.217468,83.220078 71.187424,78.459801 70.509972,73.790909 
	C70.318710,72.472809 68.709221,71.360489 67.394638,70.075150 
	C72.767807,66.665916 78.496552,63.335323 84.600464,60.417397 
	C85.346878,68.967896 85.718109,77.105728 86.089340,85.243561 
	C85.928223,85.416084 85.767105,85.588600 85.110229,86.012497 
	C84.399918,86.436867 84.208054,86.632141 84.038872,86.849701 
	C84.038872,86.849701 83.997032,87.042984 83.772697,87.125183 
	C83.386780,87.329155 83.255241,87.477577 83.153740,87.652634 
	C83.153740,87.652634 82.828072,87.976929 82.590805,88.055161 
	C82.353531,88.133385 82.299461,88.212517 82.299461,88.212517 
	C82.106644,88.389725 81.913818,88.566940 81.176544,89.019470 
	C80.403755,89.487556 80.199036,89.702782 80.017929,89.940468 
	C79.808029,90.236046 79.598129,90.531624 78.977303,91.046936 
	C78.369064,91.434006 78.196381,91.623756 78.048325,91.835930 
	C77.807121,92.152275 77.565910,92.468613 76.915092,93.020554 
	C76.330673,93.410660 76.180016,93.585930 76.053520,93.781967 
	C76.053520,93.781967 76.016975,94.002533 75.768646,94.137650 
	C75.341179,94.428566 75.187447,94.606354 75.059135,94.806122 
	C75.059135,94.806122 75.019272,94.999931 74.674713,95.020432 
	C74.330147,95.040932 73.841835,95.115372 73.841835,95.115372 
z"/>
<path fill="#8E5AA5" opacity="1.000000" stroke="none" 
	d="
M155.555237,51.145340 
	C156.014511,60.830875 156.013199,70.441147 155.776855,80.496033 
	C155.229340,80.944511 154.927841,81.004036 154.637360,81.119232 
	C154.354248,81.058540 154.071152,80.997841 153.236542,80.673965 
	C152.487503,80.237679 152.265320,80.106339 152.018433,80.016762 
	C151.840652,79.973351 151.662857,79.929932 151.084717,79.653435 
	C150.480392,79.245529 150.251907,79.112869 149.998947,79.022400 
	C149.517075,78.958488 149.035202,78.894577 148.117889,78.571762 
	C147.523712,78.169411 147.340393,78.072464 147.132477,78.022011 
	C146.933121,77.983955 146.733780,77.945900 146.030167,77.675446 
	C145.038849,77.296379 144.551819,77.149719 144.064774,77.003059 
	C144.064774,77.003059 144.005859,77.022125 144.002136,76.991203 
	C143.338043,68.678001 142.677689,60.395718 142.022888,51.659431 
	C146.383865,51.160313 150.739258,51.115189 155.555237,51.145340 
z"/>
<path fill="#905CA7" opacity="1.000000" stroke="none" 
	d="
M154.079498,147.084656 
	C156.784256,147.065109 159.438965,147.055893 162.444855,147.427307 
	C162.195587,154.803329 161.595139,161.798706 160.994690,168.794098 
	C153.308304,168.851761 145.621933,168.909409 137.332184,168.689545 
	C136.470123,167.906815 136.211441,167.401611 135.952744,166.896408 
	C141.284943,161.135620 146.617142,155.374847 152.297531,149.249878 
	C152.836502,148.738022 152.941589,148.543961 152.960938,148.303528 
	C152.960938,148.303528 153.072403,148.094513 153.359772,147.972443 
	C153.863632,147.681763 153.999374,147.463013 154.054367,147.194107 
	C154.054367,147.194107 154.029465,147.095001 154.079498,147.084656 
z"/>
<path fill="#915FA8" opacity="1.000000" stroke="none" 
	d="
M86.186890,224.799423 
	C84.195679,216.524902 83.662086,208.441635 88.059509,200.358582 
	C88.495689,200.041550 88.966949,200.002411 88.966949,200.002411 
	C89.213219,200.088577 89.459480,200.174728 90.021072,200.569473 
	C90.336403,200.878052 90.538483,200.937363 90.538483,200.937363 
	C90.858490,201.045120 91.178505,201.152863 91.910675,201.596161 
	C92.322845,201.931732 92.435333,201.936172 92.435333,201.936172 
	C92.772293,202.026154 93.109261,202.116119 93.899490,202.552185 
	C94.352760,202.898285 94.553711,202.952927 94.553711,202.952927 
	C94.816711,203.012436 95.079720,203.071945 95.811661,203.426987 
	C96.443932,203.868988 96.631622,203.970444 96.843658,204.026871 
	C97.035156,204.053009 97.226662,204.079132 97.774216,204.445709 
	C98.417786,205.200806 98.705322,205.615433 98.992859,206.030075 
	C98.986206,213.328751 98.979553,220.627411 98.759323,228.387360 
	C98.545753,228.848648 98.115097,228.983932 98.115097,228.983932 
	C97.628258,228.943909 97.141426,228.903885 96.174088,228.619720 
	C95.499908,228.207718 95.280579,228.086060 95.035591,228.010651 
	C94.853226,227.982117 94.670868,227.953583 94.008224,227.691833 
	C93.032509,227.306122 92.537079,227.153595 92.041641,227.001068 
	C91.560532,226.951019 91.079414,226.900955 90.152252,226.588089 
	C89.535103,226.168503 89.337212,226.061066 89.112534,226.002975 
	C88.916359,225.971085 88.720192,225.939194 88.105339,225.656891 
	C87.481224,225.230835 87.250748,225.098984 86.995232,225.010941 
	C86.812012,224.975983 86.628784,224.941010 86.186890,224.799423 
z"/>
<path fill="#9B6AAD" opacity="1.000000" stroke="none" 
	d="
M177.969360,73.988945 
	C176.662430,72.328323 174.570068,70.796242 174.290558,68.984482 
	C173.474686,63.696365 173.382690,58.296574 173.477234,52.475288 
	C180.304855,51.746143 186.662201,51.482258 193.019531,51.218372 
	C194.371292,51.186935 195.723038,51.155495 197.471512,51.501789 
	C197.884552,52.508072 197.900864,53.136620 197.917191,53.765167 
	C196.507614,55.112141 195.098038,56.459114 193.195465,58.068077 
	C192.471420,58.736244 192.240372,59.142418 192.009323,59.548592 
	C192.009323,59.548588 191.806030,59.969662 191.551697,60.097939 
	C191.297363,60.226215 191.212769,60.433758 191.212769,60.433758 
	C191.103729,60.583664 190.994690,60.733574 190.568420,61.043888 
	C190.251190,61.204292 190.089020,61.476902 190.089020,61.476902 
	C190.089020,61.476902 189.969131,61.808823 189.672592,61.989738 
	C189.197357,62.321846 189.062836,62.505421 188.972488,62.721382 
	C188.972488,62.721382 188.947205,62.952801 188.690948,63.085228 
	C188.251678,63.370102 188.113495,63.555923 188.020187,63.775116 
	C187.802261,64.096489 187.584335,64.417862 186.931625,64.976120 
	C186.286255,65.385864 186.118484,65.593361 185.993530,65.835472 
	C185.993530,65.835472 185.996094,66.010773 185.746460,66.117004 
	C185.293427,66.389633 185.133408,66.590561 185.016739,66.826042 
	C185.016739,66.826042 185.012207,67.006248 184.756256,67.117386 
	C184.291672,67.397781 184.124878,67.601334 183.999924,67.839188 
	C183.999924,67.839188 183.994843,68.006195 183.745285,68.113480 
	C183.287323,68.393524 183.122757,68.601067 183.002060,68.843376 
	C183.002060,68.843376 183.013824,69.005455 182.767212,69.125000 
	C182.312424,69.420616 182.146255,69.629997 182.022064,69.872696 
	C182.022064,69.872696 182.022614,70.026634 181.777771,70.139084 
	C181.321579,70.426064 181.151260,70.634186 181.021973,70.875900 
	C181.021973,70.875900 181.022736,71.023453 180.779510,71.138367 
	C180.322861,71.430573 180.150101,71.641220 180.018005,71.885223 
	C180.018005,71.885223 180.018890,72.018318 179.780228,72.135513 
	C179.324829,72.433098 179.149185,72.647194 179.014648,72.895020 
	C179.014648,72.895020 179.015564,73.016594 178.781296,73.135719 
	C178.328583,73.437584 178.151260,73.654022 178.015060,73.904167 
	C178.015060,73.904167 178.012146,73.989716 177.969360,73.988945 
z"/>
<path fill="#A373AD" opacity="1.000000" stroke="none" 
	d="
M97.054459,124.161522 
	C103.191048,124.126411 109.329536,123.995659 115.462982,124.118057 
	C117.167992,124.152084 118.858025,124.936165 120.761017,125.695831 
	C120.792755,126.288635 120.618385,126.561752 120.012405,127.040588 
	C119.337502,127.442627 119.141518,127.678291 118.992828,127.953285 
	C118.992828,127.953285 119.007347,128.007034 118.790039,128.129547 
	C118.334030,128.450989 118.142090,128.687836 117.996910,128.962570 
	C117.996910,128.962570 118.010414,129.011490 117.794113,129.134949 
	C117.337090,129.459808 117.144173,129.699646 116.999039,129.977921 
	C116.999039,129.977921 117.009415,130.008682 116.800537,130.139557 
	C116.348679,130.476578 116.151474,130.719803 116.000053,131.000153 
	C112.955086,134.200699 109.910118,137.401260 106.519318,140.839233 
	C106.173492,141.076645 106.105637,141.287491 106.105637,141.287491 
	C106.105637,141.287491 105.921288,141.721039 105.497360,141.939148 
	C104.686859,142.682968 104.300285,143.208679 103.913712,143.734390 
	C103.913712,143.734390 103.905525,143.937820 103.646805,144.046860 
	C103.189278,144.311066 103.057106,144.510437 102.991554,144.753983 
	C102.991554,144.753983 102.986389,144.953445 102.719666,145.079788 
	C102.241325,145.377304 102.088554,145.590637 101.994614,145.846115 
	C101.994614,145.846115 101.992149,145.957764 101.725708,145.891006 
	C101.459267,145.824249 101.025688,145.742798 100.903908,145.417969 
	C99.539574,138.115936 98.297020,131.138733 97.054459,124.161522 
z"/>
<path fill="#8E5AA5" opacity="1.000000" stroke="none" 
	d="
M86.392380,85.184158 
	C85.718109,77.105728 85.346878,68.967896 84.969177,60.356033 
	C85.925743,59.445793 86.888779,59.009579 88.172562,58.176193 
	C88.686073,57.627056 88.853485,57.450993 88.995560,57.250839 
	C89.205559,57.186672 89.415550,57.122509 90.040787,56.973305 
	C90.456039,56.888260 90.704620,56.609932 90.704620,56.609932 
	C91.216774,56.434956 91.728928,56.259975 92.822754,55.974411 
	C93.628563,55.742672 93.816124,55.579487 93.967133,55.374275 
	C94.415405,55.271141 94.863670,55.168003 95.890099,55.082779 
	C96.468254,55.100689 96.932556,55.206802 96.937103,55.624474 
	C96.587120,60.636711 96.670547,65.321114 95.751823,69.799950 
	C94.876907,74.065262 96.346115,76.409103 99.986519,77.985611 
	C95.556145,80.365326 91.125778,82.745033 86.392380,85.184158 
z"/>
<path fill="#8856A3" opacity="1.000000" stroke="none" 
	d="
M100.257111,77.952744 
	C96.346115,76.409103 94.876907,74.065262 95.751823,69.799950 
	C96.670547,65.321114 96.587120,60.636711 97.112198,55.484612 
	C97.516838,54.746414 97.736259,54.549400 97.940994,54.336037 
	C98.398178,54.244171 98.855362,54.152306 99.854385,54.148491 
	C100.934669,53.909000 101.473114,53.581467 102.011551,53.253929 
	C102.456360,53.190376 102.901161,53.126823 103.684494,53.082954 
	C107.577904,53.085281 109.425690,54.593124 109.195900,58.407410 
	C108.826851,64.533218 110.627419,71.103363 105.141754,76.421227 
	C104.544487,76.798470 104.101326,76.882637 103.062843,77.042053 
	C101.993057,77.326630 101.518593,77.535942 101.044128,77.745247 
	C100.871986,77.803459 100.699837,77.861671 100.257111,77.952744 
z"/>
<path fill="#8E5AA5" opacity="1.000000" stroke="none" 
	d="
M161.443909,168.865875 
	C161.595139,161.798706 162.195587,154.803329 162.888626,147.441132 
	C165.679672,147.061584 168.378143,147.048828 171.531937,147.501495 
	C171.650894,154.910873 171.314529,161.854813 170.978149,168.798767 
	C167.949799,168.845062 164.921463,168.891357 161.443909,168.865875 
z"/>
<path fill="#8651A0" opacity="1.000000" stroke="none" 
	d="
M171.419189,168.872696 
	C171.314529,161.854813 171.650894,154.910873 171.980484,147.506729 
	C174.351990,147.038620 176.730286,147.030701 179.553253,147.032867 
	C179.677597,154.022079 179.357254,161.001236 179.016113,168.388092 
	C176.616943,168.846085 174.238571,168.896362 171.419189,168.872696 
z"/>
<path fill="#9263AA" opacity="1.000000" stroke="none" 
	d="
M101.025688,145.742798 
	C101.025688,145.742798 101.459267,145.824249 101.669891,145.889648 
	C100.195702,146.295441 98.512718,146.920212 96.825806,146.931015 
	C83.938911,147.013474 71.051254,146.976242 56.816097,146.976242 
	C58.531551,153.818893 60.093430,160.048950 61.673386,166.656189 
	C59.852753,160.883621 57.943718,154.752640 56.288601,148.553864 
	C56.130272,147.960876 57.555557,146.945068 58.601837,146.035767 
	C68.009727,145.951523 77.061462,145.957092 87.043869,145.960724 
	C92.324928,145.886780 96.675308,145.814789 101.025688,145.742798 
z"/>
<path fill="#84509F" opacity="1.000000" stroke="none" 
	d="
M192.556519,51.129982 
	C186.662201,51.482258 180.304855,51.746143 173.480774,52.014793 
	C169.926331,51.848747 166.838654,51.677940 163.383728,51.351532 
	C172.708832,51.144485 182.401184,51.093040 192.556519,51.129982 
z"/>
<path fill="#8856A3" opacity="1.000000" stroke="none" 
	d="
M98.348160,229.278534 
	C98.115097,228.983932 98.545753,228.848648 98.761307,228.779816 
	C103.419899,229.597519 107.862930,230.484070 112.622711,231.543640 
	C108.153389,231.002151 103.367302,230.287643 98.348160,229.278534 
z"/>
<path fill="#8856A3" opacity="1.000000" stroke="none" 
	d="
M118.626846,208.880310 
	C115.421249,208.712097 111.913918,208.279663 108.194328,207.566437 
	C111.429749,207.729156 114.877434,208.172638 118.626846,208.880310 
z"/>
<path fill="#84509F" opacity="1.000000" stroke="none" 
	d="
M33.787392,125.224976 
	C33.865952,127.714188 33.662762,130.511749 33.303516,133.642181 
	C33.266850,131.161133 33.386242,128.347229 33.787392,125.224976 
z"/>
<path fill="#8651A0" opacity="1.000000" stroke="none" 
	d="
M129.448196,231.856018 
	C131.481461,231.434830 133.932663,231.077499 136.680115,230.841492 
	C134.606277,231.281830 132.236206,231.600861 129.448196,231.856018 
z"/>
<path fill="#8651A0" opacity="1.000000" stroke="none" 
	d="
M135.652817,166.952698 
	C136.211441,167.401611 136.470123,167.906815 136.864288,168.661484 
	C136.150162,168.811279 135.300583,168.711624 134.451004,168.611954 
	C134.751633,168.077637 135.052261,167.543304 135.652817,166.952698 
z"/>
<path fill="#84509F" opacity="1.000000" stroke="none" 
	d="
M38.058346,173.322296 
	C38.741188,174.395142 39.402946,175.815536 40.058258,177.591431 
	C39.380302,176.521240 38.708782,175.095520 38.058346,173.322296 
z"/>
<path fill="#84509F" opacity="1.000000" stroke="none" 
	d="
M37.750031,110.191734 
	C37.613346,111.545906 37.194756,113.109726 36.498402,114.878975 
	C36.636471,113.523399 37.052296,111.962387 37.750031,110.191734 
z"/>
<path fill="#84509F" opacity="1.000000" stroke="none" 
	d="
M39.774223,105.204102 
	C39.622726,106.245575 39.198723,107.478088 38.503872,108.901749 
	C38.655922,107.860321 39.078815,106.627724 39.774223,105.204102 
z"/>
<path fill="#824A9B" opacity="1.000000" stroke="none" 
	d="
M181.236755,209.644745 
	C181.701233,208.846069 182.444870,207.962708 183.497345,207.029236 
	C183.042740,207.839417 182.279327,208.699738 181.236755,209.644745 
z"/>
<path fill="#9263AA" opacity="1.000000" stroke="none" 
	d="
M64.822067,173.662460 
	C64.226196,172.974960 63.615803,171.988129 63.024246,170.694626 
	C63.631237,171.379684 64.219383,172.371399 64.822067,173.662460 
z"/>
<path fill="#8856A3" opacity="1.000000" stroke="none" 
	d="
M99.359818,206.028488 
	C98.705322,205.615433 98.417786,205.200806 98.045799,204.547180 
	C99.159843,204.699387 100.358337,205.090591 101.740616,205.740112 
	C101.191864,206.007919 100.459320,206.017410 99.359818,206.028488 
z"/>
<path fill="#8856A3" opacity="1.000000" stroke="none" 
	d="
M105.761131,206.845520 
	C105.101013,206.948059 104.230339,206.800934 103.198837,206.459747 
	C103.875534,206.375748 104.713051,206.485794 105.761131,206.845520 
z"/>
<path fill="#84509F" opacity="1.000000" stroke="none" 
	d="
M101.726303,53.218193 
	C101.473114,53.581467 100.934669,53.909000 100.205521,54.138741 
	C100.490219,53.754776 100.965645,53.468616 101.726303,53.218193 
z"/>
<path fill="#84509F" opacity="1.000000" stroke="none" 
	d="
M35.816719,116.318253 
	C35.885063,117.185852 35.698479,118.302948 35.342560,119.716560 
	C35.302746,118.864639 35.432270,117.716187 35.816719,116.318253 
z"/>
<path fill="#9263AA" opacity="1.000000" stroke="none" 
	d="
M104.146309,143.643356 
	C104.300285,143.208679 104.686859,142.682968 105.306244,142.076843 
	C105.152344,142.515060 104.765625,143.033691 104.146309,143.643356 
z"/>
<path fill="#8651A0" opacity="1.000000" stroke="none" 
	d="
M152.342072,226.967621 
	C152.770447,226.673508 153.518250,226.357956 154.573334,226.011719 
	C154.140900,226.302750 153.401199,226.624466 152.342072,226.967621 
z"/>
<path fill="#8651A0" opacity="1.000000" stroke="none" 
	d="
M143.372147,229.823029 
	C143.821777,229.526443 144.600220,229.286255 145.687164,229.031052 
	C145.230774,229.303833 144.465881,229.591629 143.372147,229.823029 
z"/>
<path fill="#84509F" opacity="1.000000" stroke="none" 
	d="
M198.236588,53.729492 
	C197.900864,53.136620 197.884552,52.508072 197.872772,51.565056 
	C198.103546,52.064999 198.329773,52.879406 198.236588,53.729492 
z"/>
<path fill="#84509F" opacity="1.000000" stroke="none" 
	d="
M37.231163,171.234924 
	C37.533646,171.424561 37.795029,171.894226 38.056740,172.637436 
	C37.768066,172.445633 37.479065,171.980301 37.231163,171.234924 
z"/>
<path fill="#84509F" opacity="1.000000" stroke="none" 
	d="
M97.656319,54.270012 
	C97.736259,54.549400 97.516838,54.746414 97.107651,55.066940 
	C96.932556,55.206802 96.468254,55.100689 96.236313,55.046902 
	C96.460121,54.730068 96.915886,54.467022 97.656319,54.270012 
z"/>
<path fill="#915FA8" opacity="1.000000" stroke="none" 
	d="
M192.228485,59.443611 
	C192.240372,59.142418 192.471420,58.736244 192.888702,58.178589 
	C192.865829,58.464275 192.656738,58.901451 192.228485,59.443611 
z"/>
<path fill="#84509F" opacity="1.000000" stroke="none" 
	d="
M144.200943,77.251068 
	C144.551819,77.149719 145.038849,77.296379 145.739410,77.585274 
	C145.414322,77.651375 144.875717,77.575226 144.200943,77.251068 
z"/>
<path fill="#8651A0" opacity="1.000000" stroke="none" 
	d="
M150.322906,227.808441 
	C150.513535,227.547470 150.992432,227.332916 151.729630,227.066345 
	C151.528992,227.294525 151.070068,227.574707 150.322906,227.808441 
z"/>
<path fill="#8856A3" opacity="1.000000" stroke="none" 
	d="
M92.183121,227.250092 
	C92.537079,227.153595 93.032509,227.306122 93.746208,227.602386 
	C93.417847,227.663803 92.871223,227.581451 92.183121,227.250092 
z"/>
<path fill="#84509F" opacity="1.000000" stroke="none" 
	d="
M154.731293,81.313881 
	C154.927841,81.004036 155.229340,80.944511 155.776428,80.922852 
	C156.011002,80.905045 156.048004,81.326416 156.055176,81.537834 
	C155.649963,81.669014 155.237595,81.588776 154.731293,81.313881 
z"/>
<path fill="#915FA8" opacity="1.000000" stroke="none" 
	d="
M53.835564,82.394257 
	C53.826317,82.721107 53.575123,83.166412 53.141258,83.793411 
	C53.170269,83.487648 53.381943,83.000183 53.835564,82.394257 
z"/>
<path fill="#84509F" opacity="1.000000" stroke="none" 
	d="
M101.329346,77.797272 
	C101.518593,77.535942 101.993057,77.326630 102.724091,77.074615 
	C102.525299,77.304382 102.069931,77.576843 101.329346,77.797272 
z"/>
<path fill="#84509F" opacity="1.000000" stroke="none" 
	d="
M65.744339,211.776245 
	C65.993805,211.892593 66.016724,212.061264 66.060600,212.484589 
	C65.720352,212.839508 65.433922,212.734970 65.147652,212.194946 
	C65.073036,211.964249 65.517799,211.828552 65.744339,211.776245 
z"/>
<path fill="#8651A0" opacity="1.000000" stroke="none" 
	d="
M143.727539,205.301453 
	C143.756760,205.490433 143.547150,205.652954 143.144058,205.886108 
	C143.062164,205.684967 143.241547,205.457703 143.727539,205.301453 
z"/>
<path fill="#84509F" opacity="1.000000" stroke="none" 
	d="
M44.280769,187.121948 
	C44.284897,186.870956 44.769150,186.896652 45.010605,186.933319 
	C45.217888,187.141937 45.183708,187.313904 45.086918,187.741531 
	C44.775085,187.789124 44.525860,187.581039 44.280769,187.121948 
z"/>
<path fill="#915FA8" opacity="1.000000" stroke="none" 
	d="
M72.754311,185.760254 
	C72.602150,185.805069 72.420654,185.631424 72.139374,185.292999 
	C72.321526,185.167450 72.549995,185.305298 72.754311,185.760254 
z"/>
<path fill="#84509F" opacity="1.000000" stroke="none" 
	d="
M43.235744,185.196274 
	C43.516949,185.115906 43.718639,185.341980 43.928638,185.839722 
	C43.735485,185.856049 43.475246,185.653168 43.235744,185.196274 
z"/>
<path fill="#915FA8" opacity="1.000000" stroke="none" 
	d="
M71.852455,184.742523 
	C71.676102,184.788879 71.475647,184.585526 71.164467,184.193695 
	C71.374809,184.057114 71.633018,184.219650 71.852455,184.742523 
z"/>
<path fill="#824A9B" opacity="1.000000" stroke="none" 
	d="
M180.286606,210.471741 
	C180.170883,210.459366 180.402512,210.180420 180.478699,210.135681 
	C180.554886,210.090927 180.402328,210.484116 180.286606,210.471741 
z"/>
<path fill="#84509F" opacity="1.000000" stroke="none" 
	d="
M42.244514,183.195740 
	C42.519905,183.116379 42.720051,183.340729 42.926193,183.836273 
	C42.737854,183.851288 42.483551,183.648621 42.244514,183.195740 
z"/>
<path fill="#84509F" opacity="1.000000" stroke="none" 
	d="
M41.227249,181.202896 
	C41.504581,181.125732 41.706741,181.353577 41.920280,181.851990 
	C41.728897,181.867020 41.469040,181.662125 41.227249,181.202896 
z"/>
<path fill="#84509F" opacity="1.000000" stroke="none" 
	d="
M64.103958,211.223907 
	C64.330505,211.088425 64.581718,211.262466 64.895523,211.713165 
	C64.650574,211.913910 64.374077,211.761780 64.103958,211.223907 
z"/>
<path fill="#915FA8" opacity="1.000000" stroke="none" 
	d="
M74.294800,187.685242 
	C74.253983,187.708908 74.183388,187.676346 74.188545,187.656647 
	C74.193703,187.636932 74.335617,187.661575 74.294800,187.685242 
z"/>
<path fill="#84509F" opacity="1.000000" stroke="none" 
	d="
M40.221748,179.192856 
	C40.512474,179.119461 40.710381,179.354156 40.917938,179.859146 
	C40.718517,179.871765 40.452297,179.662262 40.221748,179.192856 
z"/>
<path fill="#915FA8" opacity="1.000000" stroke="none" 
	d="
M69.143539,215.222473 
	C69.294586,215.153275 69.485657,215.304398 69.781616,215.610214 
	C69.585205,215.818146 69.350883,215.710770 69.143539,215.222473 
z"/>
<path fill="#8856A3" opacity="1.000000" stroke="none" 
	d="
M87.087540,225.215546 
	C87.250748,225.098984 87.481224,225.230835 87.827507,225.548782 
	C87.968361,225.691101 87.519753,225.713760 87.519753,225.713760 
	C87.519753,225.713760 87.179855,225.420166 87.087540,225.215546 
z"/>
<path fill="#8651A0" opacity="1.000000" stroke="none" 
	d="
M156.282471,225.653214 
	C156.241882,225.472778 156.418610,225.323273 156.765793,225.112305 
	C156.873734,225.309601 156.728241,225.520676 156.282471,225.653214 
z"/>
<path fill="#8856A3" opacity="1.000000" stroke="none" 
	d="
M89.183472,226.179108 
	C89.337212,226.061066 89.535103,226.168503 89.814240,226.456314 
	C89.922287,226.587341 89.543060,226.601456 89.543060,226.601456 
	C89.543060,226.601456 89.254417,226.355240 89.183472,226.179108 
z"/>
<path fill="#8856A3" opacity="1.000000" stroke="none" 
	d="
M95.119965,228.206299 
	C95.280579,228.086060 95.499908,228.207718 95.823509,228.513290 
	C95.953438,228.650970 95.528000,228.679398 95.528000,228.679398 
	C95.528000,228.679398 95.204338,228.401932 95.119965,228.206299 
z"/>
<path fill="#8651A0" opacity="1.000000" stroke="none" 
	d="
M148.267960,228.684814 
	C148.232513,228.495499 148.429611,228.336700 148.811798,228.110565 
	C148.910538,228.316299 148.745071,228.540329 148.267960,228.684814 
z"/>
<path fill="#8651A0" opacity="1.000000" stroke="none" 
	d="
M140.246826,230.734070 
	C140.208694,230.555756 140.395035,230.487381 140.700592,230.533844 
	C140.792664,230.570175 140.444107,230.765457 140.246826,230.734070 
z"/>
<path fill="#84509F" opacity="1.000000" stroke="none" 
	d="
M49.388062,195.179367 
	C49.632568,195.083191 49.817837,195.264557 49.986839,195.703217 
	C49.739510,195.831177 49.525585,195.663300 49.388062,195.179367 
z"/>
<path fill="#8856A3" opacity="1.000000" stroke="none" 
	d="
M92.469040,201.869934 
	C92.435333,201.936172 92.322845,201.931732 92.315498,201.900574 
	C92.308151,201.869400 92.502739,201.803680 92.469040,201.869934 
z"/>
<path fill="#8856A3" opacity="1.000000" stroke="none" 
	d="
M90.560242,200.848145 
	C90.538483,200.937363 90.336403,200.878052 90.312866,200.830261 
	C90.289330,200.782486 90.582001,200.758926 90.560242,200.848145 
z"/>
<path fill="#7B4396" opacity="1.000000" stroke="none" 
	d="
M188.271362,201.964050 
	C188.216095,201.791306 188.425720,201.549240 188.847397,201.177246 
	C188.858139,201.306488 188.683746,201.588943 188.271362,201.964050 
z"/>
<path fill="#8856A3" opacity="1.000000" stroke="none" 
	d="
M88.876053,199.789032 
	C88.966949,200.002411 88.495689,200.041550 88.260223,200.060516 
	C88.024750,200.079468 87.973267,199.699661 87.965012,199.508118 
	C88.298904,199.192017 88.575035,199.278381 88.876053,199.789032 
z"/>
<path fill="#84509F" opacity="1.000000" stroke="none" 
	d="
M52.318180,199.188568 
	C52.581253,199.080154 52.777222,199.264450 52.971359,199.710129 
	C52.700733,199.876282 52.461246,199.712860 52.318180,199.188568 
z"/>
<path fill="#7B4396" opacity="1.000000" stroke="none" 
	d="
M191.286621,198.666260 
	C191.145752,198.684814 191.395630,198.279068 191.496765,198.211975 
	C191.676529,198.358795 191.619736,198.526413 191.286621,198.666260 
z"/>
<path fill="#915FA8" opacity="1.000000" stroke="none" 
	d="
M86.890228,198.752289 
	C86.735390,198.807022 86.526779,198.628479 86.200302,198.276276 
	C86.398727,198.113052 86.650063,198.251862 86.890228,198.752289 
z"/>
<path fill="#915FA8" opacity="1.000000" stroke="none" 
	d="
M85.831535,197.740509 
	C85.675667,197.829895 85.493675,197.699631 85.210167,197.426727 
	C85.397362,197.173004 85.629616,197.251923 85.831535,197.740509 
z"/>
<path fill="#915FA8" opacity="1.000000" stroke="none" 
	d="
M83.911453,196.739899 
	C83.755104,196.790710 83.535439,196.601410 83.189499,196.229645 
	C83.387169,196.080185 83.648804,196.231049 83.911453,196.739899 
z"/>
<path fill="#84509F" opacity="1.000000" stroke="none" 
	d="
M50.126427,196.237991 
	C50.371857,196.135895 50.604996,196.341934 50.891052,196.816223 
	C50.717331,196.848465 50.440723,196.669022 50.126427,196.237991 
z"/>
<path fill="#915FA8" opacity="1.000000" stroke="none" 
	d="
M82.877304,195.740112 
	C82.713425,195.804474 82.507385,195.630936 82.184296,195.287323 
	C82.390083,195.098953 82.646057,195.227264 82.877304,195.740112 
z"/>
<path fill="#8651A0" opacity="1.000000" stroke="none" 
	d="
M145.657715,204.434021 
	C145.701157,204.591904 145.562088,204.716614 145.279236,204.883789 
	C145.181290,204.717499 145.294525,204.542389 145.657715,204.434021 
z"/>
<path fill="#915FA8" opacity="1.000000" stroke="none" 
	d="
M81.752380,194.765991 
	C81.614052,194.826569 81.453682,194.694824 81.211853,194.425507 
	C81.383057,194.258957 81.583046,194.354202 81.752380,194.765991 
z"/>
<path fill="#84509F" opacity="1.000000" stroke="none" 
	d="
M47.283211,192.191254 
	C47.557823,192.094635 47.756824,192.298752 47.951996,192.772766 
	C47.670738,192.923965 47.423885,192.740402 47.283211,192.191254 
z"/>
<path fill="#84509F" opacity="1.000000" stroke="none" 
	d="
M167.762451,190.147522 
	C167.806320,190.307465 167.609818,190.515167 167.231506,190.843384 
	C167.097656,190.645950 167.255127,190.389740 167.762451,190.147522 
z"/>
<path fill="#84509F" opacity="1.000000" stroke="none" 
	d="
M46.129684,190.214539 
	C46.379017,190.127808 46.607258,190.351700 46.882401,190.848663 
	C46.707264,190.870361 46.433693,190.671509 46.129684,190.214539 
z"/>
<path fill="#84509F" opacity="1.000000" stroke="none" 
	d="
M168.761307,189.134338 
	C168.808441,189.289413 168.618454,189.503616 168.248886,189.842804 
	C168.109558,189.649673 168.261185,189.391571 168.761307,189.134338 
z"/>
<path fill="#84509F" opacity="1.000000" stroke="none" 
	d="
M45.436577,189.191711 
	C45.670498,189.100845 45.845501,189.274445 46.007782,189.691986 
	C45.770721,189.817261 45.564922,189.657333 45.436577,189.191711 
z"/>
<path fill="#84509F" opacity="1.000000" stroke="none" 
	d="
M169.739258,188.092667 
	C169.791138,188.256302 169.595657,188.477402 169.217026,188.829636 
	C169.060120,188.624802 169.212799,188.354584 169.739258,188.092667 
z"/>
<path fill="#915FA8" opacity="1.000000" stroke="none" 
	d="
M75.301071,188.715149 
	C75.255630,188.740631 75.185349,188.698776 75.189819,188.678436 
	C75.194283,188.658112 75.346519,188.689667 75.301071,188.715149 
z"/>
<path fill="#8856A3" opacity="1.000000" stroke="none" 
	d="
M94.574150,202.862427 
	C94.553711,202.952927 94.352760,202.898285 94.328278,202.851898 
	C94.303787,202.805511 94.594589,202.771942 94.574150,202.862427 
z"/>
<path fill="#8856A3" opacity="1.000000" stroke="none" 
	d="
M96.779694,203.856827 
	C96.631622,203.970444 96.443932,203.868988 96.177795,203.598907 
	C96.343971,203.378021 96.557549,203.448517 96.779694,203.856827 
z"/>
<path fill="#84509F" opacity="1.000000" stroke="none" 
	d="
M54.095711,201.234680 
	C54.331127,201.120453 54.579784,201.319336 54.888107,201.798126 
	C54.721802,201.834229 54.442196,201.657471 54.095711,201.234680 
z"/>
<path fill="#915FA8" opacity="1.000000" stroke="none" 
	d="
M63.745380,72.433884 
	C63.805477,72.585762 63.685841,72.714394 63.435684,72.893372 
	C63.283108,72.722107 63.369930,72.544418 63.745380,72.433884 
z"/>
<path fill="#8E5AA5" opacity="1.000000" stroke="none" 
	d="
M84.261307,86.810120 
	C84.208054,86.632141 84.399918,86.436867 84.781639,86.144424 
	C84.914886,86.349075 84.759857,86.597595 84.261307,86.810120 
z"/>
<path fill="#915FA8" opacity="1.000000" stroke="none" 
	d="
M50.779140,86.167999 
	C50.898922,86.345276 50.768963,86.552536 50.452202,86.850845 
	C50.196712,86.650520 50.284714,86.402550 50.779140,86.167999 
z"/>
<path fill="#915FA8" opacity="1.000000" stroke="none" 
	d="
M51.756626,85.095184 
	C51.844879,85.282791 51.665821,85.512360 51.271984,85.841812 
	C51.084061,85.620453 51.228096,85.352272 51.756626,85.095184 
z"/>
<path fill="#915FA8" opacity="1.000000" stroke="none" 
	d="
M52.729309,84.045464 
	C52.980057,84.135162 52.987671,84.308441 53.000999,84.741959 
	C52.839870,85.003738 52.673027,85.005295 52.256157,85.002075 
	C52.166138,84.707878 52.326153,84.418465 52.729309,84.045464 
z"/>
<path fill="#915FA8" opacity="1.000000" stroke="none" 
	d="
M54.792633,81.332329 
	C54.856659,81.474518 54.726597,81.635162 54.453156,81.873932 
	C54.299847,81.708046 54.396099,81.507622 54.792633,81.332329 
z"/>
<path fill="#84509F" opacity="1.000000" stroke="none" 
	d="
M152.088806,80.235245 
	C152.265320,80.106339 152.487503,80.237679 152.820160,80.550552 
	C152.955292,80.690331 152.501434,80.759659 152.501434,80.759659 
	C152.501434,80.759659 152.159180,80.453728 152.088806,80.235245 
z"/>
<path fill="#915FA8" opacity="1.000000" stroke="none" 
	d="
M55.782028,80.174973 
	C55.852261,80.336021 55.691750,80.534645 55.361866,80.837059 
	C55.175106,80.638199 55.294704,80.395424 55.782028,80.174973 
z"/>
<path fill="#84509F" opacity="1.000000" stroke="none" 
	d="
M150.082596,79.235474 
	C150.251907,79.112869 150.480392,79.245529 150.826538,79.560158 
	C150.968689,79.699951 150.512909,79.748238 150.512909,79.748238 
	C150.512909,79.748238 150.166245,79.448547 150.082596,79.235474 
z"/>
<path fill="#84509F" opacity="1.000000" stroke="none" 
	d="
M147.194427,78.188171 
	C147.340393,78.072464 147.523712,78.169411 147.780273,78.434082 
	C147.878128,78.555305 147.525421,78.584061 147.525421,78.584061 
	C147.525421,78.584061 147.256378,78.354324 147.194427,78.188171 
z"/>
<path fill="#915FA8" opacity="1.000000" stroke="none" 
	d="
M59.734322,76.111221 
	C59.791702,76.284294 59.595779,76.503304 59.203896,76.838913 
	C59.057594,76.632607 59.215286,76.366501 59.734322,76.111221 
z"/>
<path fill="#915FA8" opacity="1.000000" stroke="none" 
	d="
M61.734917,74.149277 
	C61.794121,74.334366 61.601791,74.533203 61.218769,74.830994 
	C61.062645,74.613266 61.214413,74.357635 61.734917,74.149277 
z"/>
<path fill="#915FA8" opacity="1.000000" stroke="none" 
	d="
M178.238220,73.847466 
	C178.151260,73.654022 178.328583,73.437584 178.720520,73.136261 
	C178.894928,73.356613 178.750732,73.614311 178.238220,73.847466 
z"/>
<path fill="#915FA8" opacity="1.000000" stroke="none" 
	d="
M62.785332,73.269730 
	C62.837223,73.440918 62.659626,73.617317 62.304008,73.875229 
	C62.169712,73.675156 62.313000,73.447884 62.785332,73.269730 
z"/>
<path fill="#915FA8" opacity="1.000000" stroke="none" 
	d="
M179.236298,72.840378 
	C179.149185,72.647194 179.324829,72.433098 179.713684,72.136047 
	C179.888443,72.355957 179.745834,72.611404 179.236298,72.840378 
z"/>
<path fill="#8E5AA5" opacity="1.000000" stroke="none" 
	d="
M83.327637,87.649086 
	C83.255241,87.477577 83.386780,87.329155 83.673843,87.127502 
	C83.819099,87.306366 83.719833,87.505669 83.327637,87.649086 
z"/>
<path fill="#915FA8" opacity="1.000000" stroke="none" 
	d="
M180.236877,71.832748 
	C180.150101,71.641220 180.322861,71.430573 180.705719,71.138855 
	C180.880524,71.356956 180.740723,71.608902 180.236877,71.832748 
z"/>
<path fill="#915FA8" opacity="1.000000" stroke="none" 
	d="
M181.238739,70.825500 
	C181.151260,70.634186 181.321579,70.426064 181.700806,70.139465 
	C181.875412,70.356514 181.737686,70.605743 181.238739,70.825500 
z"/>
<path fill="#915FA8" opacity="1.000000" stroke="none" 
	d="
M182.238876,69.822212 
	C182.146255,69.629997 182.312424,69.420616 182.686172,69.130943 
	C182.871460,69.348503 182.739441,69.599968 182.238876,69.822212 
z"/>
<path fill="#915FA8" opacity="1.000000" stroke="none" 
	d="
M183.211456,68.787041 
	C183.122757,68.601067 183.287323,68.393524 183.661789,68.110962 
	C183.827179,68.319695 183.691513,68.562874 183.211456,68.787041 
z"/>
<path fill="#915FA8" opacity="1.000000" stroke="none" 
	d="
M184.214142,67.793961 
	C184.124878,67.601334 184.291672,67.397781 184.666214,67.121399 
	C184.843750,67.339523 184.709152,67.584343 184.214142,67.793961 
z"/>
<path fill="#915FA8" opacity="1.000000" stroke="none" 
	d="
M185.225250,66.780235 
	C185.133408,66.590561 185.293427,66.389633 185.658813,66.118324 
	C185.834274,66.330276 185.705261,66.570618 185.225250,66.780235 
z"/>
<path fill="#915FA8" opacity="1.000000" stroke="none" 
	d="
M186.208557,65.785492 
	C186.118484,65.593361 186.286255,65.385864 186.664551,65.102264 
	C186.838730,65.317955 186.702499,65.565956 186.208557,65.785492 
z"/>
<path fill="#915FA8" opacity="1.000000" stroke="none" 
	d="
M188.212555,63.737514 
	C188.113495,63.555923 188.251678,63.370102 188.581573,63.125031 
	C188.770020,63.327400 188.662170,63.549900 188.212555,63.737514 
z"/>
<path fill="#915FA8" opacity="1.000000" stroke="none" 
	d="
M189.155792,62.675392 
	C189.062836,62.505421 189.197357,62.321846 189.519470,62.077423 
	C189.686874,62.265526 189.578949,62.480598 189.155792,62.675392 
z"/>
<path fill="#915FA8" opacity="1.000000" stroke="none" 
	d="
M190.195740,61.494286 
	C190.089020,61.476902 190.251190,61.204292 190.323029,61.174629 
	C190.394852,61.144970 190.302475,61.511673 190.195740,61.494286 
z"/>
<path fill="#915FA8" opacity="1.000000" stroke="none" 
	d="
M191.297577,60.482399 
	C191.212769,60.433758 191.297363,60.226215 191.355988,60.225822 
	C191.414597,60.225426 191.382401,60.531044 191.297577,60.482399 
z"/>
<path fill="#84509F" opacity="1.000000" stroke="none" 
	d="
M88.760803,57.221416 
	C88.853485,57.450993 88.686073,57.627056 88.344376,57.885002 
	C88.068436,57.626503 88.178642,57.360172 88.760803,57.221416 
z"/>
<path fill="#84509F" opacity="1.000000" stroke="none" 
	d="
M90.591476,56.561203 
	C90.704620,56.609932 90.456039,56.888260 90.363083,56.905411 
	C90.270126,56.922565 90.478325,56.512478 90.591476,56.561203 
z"/>
<path fill="#84509F" opacity="1.000000" stroke="none" 
	d="
M93.762291,55.375805 
	C93.816124,55.579487 93.628563,55.742672 93.230545,55.932621 
	C93.134010,55.721508 93.300941,55.513481 93.762291,55.375805 
z"/>
<path fill="#84509F" opacity="1.000000" stroke="none" 
	d="
M42.770180,99.056160 
	C42.944366,99.253059 42.818108,99.516457 42.443405,99.886078 
	C42.139408,99.668892 42.230999,99.379005 42.770180,99.056160 
z"/>
<path fill="#7B4396" opacity="1.000000" stroke="none" 
	d="
M152.775452,148.337982 
	C152.941589,148.543961 152.836502,148.738022 152.494232,148.966095 
	C152.268036,148.763947 152.350449,148.539276 152.775452,148.337982 
z"/>
<path fill="#7B4396" opacity="1.000000" stroke="none" 
	d="
M153.867401,147.268616 
	C153.999374,147.463013 153.863632,147.681763 153.472412,147.935822 
	C153.314560,147.732758 153.442154,147.506699 153.867401,147.268616 
z"/>
<path fill="#9263AA" opacity="1.000000" stroke="none" 
	d="
M102.208649,145.798492 
	C102.088554,145.590637 102.241325,145.377304 102.623337,145.105743 
	C102.832062,145.334518 102.708374,145.583008 102.208649,145.798492 
z"/>
<path fill="#9263AA" opacity="1.000000" stroke="none" 
	d="
M103.181877,144.705536 
	C103.057106,144.510437 103.189278,144.311066 103.547791,144.070496 
	C103.732521,144.277405 103.620758,144.501419 103.181877,144.705536 
z"/>
<path fill="#9263AA" opacity="1.000000" stroke="none" 
	d="
M106.187622,141.333160 
	C106.105637,141.287491 106.173492,141.076645 106.239258,141.074280 
	C106.305023,141.071915 106.269615,141.378845 106.187622,141.333160 
z"/>
<path fill="#9565AA" opacity="1.000000" stroke="none" 
	d="
M116.240967,130.922760 
	C116.151474,130.719803 116.348679,130.476578 116.784866,130.135315 
	C116.812683,130.281906 116.647278,130.563644 116.240967,130.922760 
z"/>
<path fill="#9565AA" opacity="1.000000" stroke="none" 
	d="
M117.235329,129.902039 
	C117.144173,129.699646 117.337090,129.459808 117.769623,129.128326 
	C117.937988,129.356934 117.774719,129.632919 117.235329,129.902039 
z"/>
<path fill="#9565AA" opacity="1.000000" stroke="none" 
	d="
M118.234131,128.892334 
	C118.142090,128.687836 118.334030,128.450989 118.762894,128.123383 
	C118.936417,128.354309 118.775848,128.630096 118.234131,128.892334 
z"/>
<path fill="#9565AA" opacity="1.000000" stroke="none" 
	d="
M119.228455,127.881584 
	C119.141518,127.678291 119.337502,127.442627 119.774673,127.120743 
	C119.930244,127.347168 119.762085,127.618729 119.228455,127.881584 
z"/>
<path fill="#84509F" opacity="1.000000" stroke="none" 
	d="
M34.820354,121.097366 
	C35.018265,121.267090 34.935833,121.528755 34.594193,121.893036 
	C34.310951,121.709290 34.379292,121.440506 34.820354,121.097366 
z"/>
<path fill="#84509F" opacity="1.000000" stroke="none" 
	d="
M41.173702,103.763588 
	C41.228905,104.036217 40.754436,104.111633 40.514671,104.129227 
	C40.356026,103.823959 40.437153,103.501099 40.758099,103.063049 
	C41.038113,103.128899 41.078304,103.309929 41.173702,103.763588 
z"/>
<path fill="#915FA8" opacity="1.000000" stroke="none" 
	d="
M68.261230,102.903038 
	C68.187363,102.732162 68.361443,102.515823 68.715485,102.181519 
	C68.917870,102.394066 68.789108,102.658737 68.261230,102.903038 
z"/>
<path fill="#915FA8" opacity="1.000000" stroke="none" 
	d="
M69.213287,101.763107 
	C69.126839,101.619614 69.239113,101.456978 69.489677,101.214859 
	C69.709023,101.383904 69.637039,101.586769 69.213287,101.763107 
z"/>
<path fill="#84509F" opacity="1.000000" stroke="none" 
	d="
M41.764812,101.054077 
	C41.937019,101.252777 41.808311,101.512199 41.435654,101.876656 
	C41.125423,101.657425 41.216152,101.368462 41.764812,101.054077 
z"/>
<path fill="#9263AA" opacity="1.000000" stroke="none" 
	d="
M62.663109,168.740753 
	C62.444485,168.800766 62.286652,168.621796 62.091904,168.248001 
	C62.322563,168.114365 62.545528,168.263885 62.663109,168.740753 
z"/>
<path fill="#8E5AA5" opacity="1.000000" stroke="none" 
	d="
M72.241615,97.871506 
	C72.157829,97.692223 72.328430,97.474243 72.702957,97.161713 
	C72.881241,97.372688 72.744278,97.627914 72.241615,97.871506 
z"/>
<path fill="#84509F" opacity="1.000000" stroke="none" 
	d="
M43.775131,97.075287 
	C43.952206,97.278664 43.824776,97.537704 43.445099,97.895172 
	C43.141766,97.673561 43.234356,97.386002 43.775131,97.075287 
z"/>
<path fill="#8E5AA5" opacity="1.000000" stroke="none" 
	d="
M73.871521,95.296852 
	C73.841835,95.115372 74.330147,95.040932 74.575806,95.023056 
	C74.806015,95.320770 74.663124,95.560371 74.183723,95.781357 
	C73.974648,95.838715 73.901207,95.478333 73.871521,95.296852 
z"/>
<path fill="#84509F" opacity="1.000000" stroke="none" 
	d="
M44.813503,95.131210 
	C44.996452,95.331215 44.882202,95.578217 44.508247,95.903412 
	C44.225380,95.687836 44.314632,95.420044 44.813503,95.131210 
z"/>
<path fill="#8E5AA5" opacity="1.000000" stroke="none" 
	d="
M75.255569,94.771576 
	C75.187447,94.606354 75.341179,94.428566 75.661018,94.167847 
	C75.827888,94.361748 75.711319,94.586449 75.255569,94.771576 
z"/>
<path fill="#8E5AA5" opacity="1.000000" stroke="none" 
	d="
M76.242035,93.740349 
	C76.180016,93.585930 76.330673,93.410660 76.642586,93.151062 
	C76.791595,93.332245 76.675217,93.549835 76.242035,93.740349 
z"/>
<path fill="#84509F" opacity="1.000000" stroke="none" 
	d="
M45.887741,93.278381 
	C46.053726,93.453789 45.963314,93.660965 45.633354,93.917610 
	C45.429886,93.739082 45.509064,93.520103 45.887741,93.278381 
z"/>
<path fill="#84509F" opacity="1.000000" stroke="none" 
	d="
M46.759140,92.039154 
	C46.904446,92.245506 46.746941,92.511749 46.331299,92.876503 
	C46.273548,92.726028 46.401276,92.434044 46.759140,92.039154 
z"/>
<path fill="#8E5AA5" opacity="1.000000" stroke="none" 
	d="
M78.257416,91.793869 
	C78.196381,91.623756 78.369064,91.434006 78.720634,91.152145 
	C78.869446,91.350471 78.733322,91.588531 78.257416,91.793869 
z"/>
<path fill="#9565AA" opacity="1.000000" stroke="none" 
	d="
M47.742729,90.496002 
	C47.814987,90.545929 47.784012,90.674759 47.747719,90.683304 
	C47.711426,90.691841 47.670467,90.446068 47.742729,90.496002 
z"/>
<path fill="#8E5AA5" opacity="1.000000" stroke="none" 
	d="
M80.249969,89.877846 
	C80.199036,89.702782 80.403755,89.487556 80.810165,89.161171 
	C80.941010,89.368225 80.772270,89.630783 80.249969,89.877846 
z"/>
<path fill="#8E5AA5" opacity="1.000000" stroke="none" 
	d="
M82.325607,88.265221 
	C82.299461,88.212517 82.353531,88.133385 82.377357,88.140312 
	C82.401184,88.147240 82.351746,88.317924 82.325607,88.265221 
z"/>
<path fill="#9565AA" opacity="1.000000" stroke="none" 
	d="
M49.733418,88.053253 
	C49.798679,88.227570 49.601955,88.465073 49.199341,88.827438 
	C49.037037,88.614899 49.196365,88.336266 49.733418,88.053253 
z"/>
<path fill="#9E6EAC" opacity="1.000000" stroke="none" 
	d="
M100.903908,145.417969 
	C96.675308,145.814789 92.324928,145.886780 87.516052,145.951355 
	C86.644081,140.065231 86.066284,134.189331 85.966599,128.305328 
	C85.948372,127.229340 87.698463,125.532066 88.945305,125.154045 
	C91.253136,124.454369 93.792320,124.517799 96.644806,124.212448 
	C98.297020,131.138733 99.539574,138.115936 100.903908,145.417969 
z"/>
</svg>